# File created by Blade
# Date/Time:  Thu Sep 25 19:43:58 2014
# Frame Rate: 120.000 fps
#------------------------------------------------------
:FULLY-SPECIFIED
:DEGREES
786
root 3.292607 13.253095 -10.590609 13.876353 18.400660 -20.719340
Spine 8.886330 4.463417 -35.643627
Head -13.894990 -13.203183 -23.853756
LeftShoulder -0.083339 7.644490 18.396402
LeftArm 22.468608 -2.304123 -55.369774
LeftForeArm 30.443394 -0.000000 14.440252
LeftHand -33.226849 -0.000000 111.622165
LeftHandThumb1 -26.253704 0.000000 33.147579
RightShoulder -19.515156 32.311300 -60.237130
RightArm 71.435308 36.242152 46.558516
RightForeArm 26.462492 -0.000000 23.259900
RightHand 3.049661 -0.000000 -5.349416
RightHandThumb1 -24.326973 -0.000000 -32.862282
LeftUpLeg -122.786859 42.743908 10.530781
LeftLeg 125.946366 -0.000000 -0.000000
LeftFoot -26.984693 -16.908212 -10.362603
LeftToeBase 3.594462 -0.000000 -0.000000
RightUpLeg -5.263560 -26.727378 -40.836996
RightLeg 7.337401 -0.000000 -0.000000
RightFoot 8.580297 -18.775325 -3.711023
RightToeBase 7.239045 -0.000000 -0.000000
787
root 3.284259 13.263357 -10.589503 13.924102 18.514224 -20.700680
Spine 8.914154 4.524609 -35.638736
Head -13.699532 -13.193524 -23.822549
LeftShoulder -0.016180 7.540572 18.357480
LeftArm 22.501489 -2.177550 -55.223611
LeftForeArm 30.378931 -0.000000 14.461522
LeftHand -33.228159 -0.000000 111.547010
LeftHandThumb1 -26.253704 0.000000 33.147579
RightShoulder -19.466186 32.271662 -60.189109
RightArm 71.478265 36.256646 46.575139
RightForeArm 26.543022 -0.000000 23.249610
RightHand 3.119712 0.000000 -5.458613
RightHandThumb1 -24.326973 -0.000000 -32.862282
LeftUpLeg -122.897112 42.651054 10.417912
LeftLeg 125.868440 -0.000000 -0.000000
LeftFoot -26.922377 -16.872010 -10.381411
LeftToeBase 3.653368 -0.000000 -0.000000
RightUpLeg -5.266378 -26.593591 -40.832371
RightLeg 7.466242 -0.000000 -0.000000
RightFoot 8.522411 -18.995166 -3.750873
RightToeBase 7.253543 -0.000000 -0.000000
788
root 3.275000 13.273929 -10.588664 13.960484 18.637390 -20.671280
Spine 8.939921 4.582350 -35.646399
Head -13.436378 -13.191272 -23.797494
LeftShoulder 0.089926 7.475493 18.328459
LeftArm 22.522553 -2.037474 -55.051496
LeftForeArm 30.294396 -0.000000 14.500815
LeftHand -33.254179 -0.000000 111.439002
LeftHandThumb1 -26.253704 0.000000 33.147579
RightShoulder -19.472765 32.402730 -60.218752
RightArm 71.511681 36.115919 46.718730
RightForeArm 26.487604 0.000000 23.171826
RightHand 3.205681 0.000000 -5.507569
RightHandThumb1 -24.326973 -0.000000 -32.862282
LeftUpLeg -122.967978 42.560827 10.320384
LeftLeg 125.813395 -0.000000 -0.000000
LeftFoot -26.896805 -16.904870 -10.337831
LeftToeBase 3.732655 -0.000000 -0.000000
RightUpLeg -5.247249 -26.480288 -40.845884
RightLeg 7.593305 -0.000000 -0.000000
RightFoot 8.424760 -19.217506 -3.737270
RightToeBase 7.305721 -0.000000 -0.000000
789
root 3.266467 13.284683 -10.586944 14.017321 18.792006 -20.640995
Spine 8.978561 4.611437 -35.648867
Head -13.216971 -13.193612 -23.733253
LeftShoulder 0.156279 7.412616 18.297082
LeftArm 22.589135 -1.907718 -54.904627
LeftForeArm 30.268990 -0.000000 14.512784
LeftHand -33.237446 -0.000000 111.336806
LeftHandThumb1 -26.253704 0.000000 33.147579
RightShoulder -19.438915 32.381982 -60.161216
RightArm 71.598154 36.106162 46.794221
RightForeArm 26.519179 0.000000 23.160488
RightHand 3.218812 0.000000 -5.629132
RightHandThumb1 -24.326973 -0.000000 -32.862282
LeftUpLeg -123.112748 42.438815 10.144666
LeftLeg 125.739080 -0.000000 -0.000000
LeftFoot -26.879673 -16.872108 -10.253466
LeftToeBase 3.693852 -0.000000 -0.000000
RightUpLeg -5.210291 -26.430998 -40.851598
RightLeg 7.697988 -0.000000 -0.000000
RightFoot 8.372864 -19.421740 -3.754527
RightToeBase 7.315378 -0.000000 -0.000000
790
root 3.258151 13.295534 -10.582442 14.061309 18.965020 -20.611082
Spine 9.044075 4.640845 -35.645288
Head -13.032107 -13.205169 -23.682425
LeftShoulder 0.215096 7.391090 18.249732
LeftArm 22.693906 -1.746110 -54.713599
LeftForeArm 30.153579 -0.000000 14.549873
LeftHand -33.357432 -0.000000 111.297299
LeftHandThumb1 -26.253704 0.000000 33.147579
RightShoulder -19.360715 32.271840 -60.078568
RightArm 71.700852 36.196757 46.870271
RightForeArm 26.577656 -0.000000 23.164326
RightHand 3.191243 -0.000000 -5.504732
RightHandThumb1 -24.326973 -0.000000 -32.862282
LeftUpLeg -123.234043 42.321929 10.000165
LeftLeg 125.666502 -0.000000 -0.000000
LeftFoot -26.827944 -16.940460 -10.231048
LeftToeBase 3.715305 -0.000000 -0.000000
RightUpLeg -5.134862 -26.392838 -40.864707
RightLeg 7.789124 -0.000000 -0.000000
RightFoot 8.316493 -19.595911 -3.842250
RightToeBase 7.273624 -0.000000 -0.000000
791
root 3.249527 13.307408 -10.578725 14.126671 19.141758 -20.582821
Spine 9.089873 4.662189 -35.647268
Head -12.846438 -13.226385 -23.610202
LeftShoulder 0.270452 7.377888 18.210110
LeftArm 22.821024 -1.634826 -54.544877
LeftForeArm 30.144171 -0.000000 14.563165
LeftHand -33.397827 -0.000000 111.257725
LeftHandThumb1 -26.253704 0.000000 33.147579
RightShoulder -19.290486 32.169622 -60.002976
RightArm 71.758190 36.263154 46.924831
RightForeArm 26.644516 -0.000000 23.209989
RightHand 3.145515 0.000000 -5.519401
RightHandThumb1 -24.326973 -0.000000 -32.862282
LeftUpLeg -123.382823 42.206564 9.832211
LeftLeg 125.591602 -0.000000 -0.000000
LeftFoot -26.789664 -17.009254 -10.194095
LeftToeBase 3.829863 -0.000000 -0.000000
RightUpLeg -5.083746 -26.300439 -40.866114
RightLeg 7.901140 -0.000000 -0.000000
RightFoot 8.226253 -19.846125 -3.820155
RightToeBase 7.234752 -0.000000 -0.000000
792
root 3.238341 13.320341 -10.575072 14.183690 19.329485 -20.569599
Spine 9.145323 4.672056 -35.633600
Head -12.679000 -13.284227 -23.541436
LeftShoulder 0.330203 7.379292 18.186624
LeftArm 22.946656 -1.512909 -54.373529
LeftForeArm 30.061099 -0.000000 14.597212
LeftHand -33.316156 -0.000000 111.129862
LeftHandThumb1 -26.253704 0.000000 33.147579
RightShoulder -19.247889 32.112561 -59.954182
RightArm 71.889350 36.310312 47.157124
RightForeArm 26.485052 -0.000000 23.291373
RightHand 3.140064 -0.000000 -5.603917
RightHandThumb1 -24.326973 -0.000000 -32.862282
LeftUpLeg -123.537062 42.101622 9.659461
LeftLeg 125.497185 -0.000000 -0.000000
LeftFoot -26.756124 -17.103718 -10.119499
LeftToeBase 3.886726 -0.000000 -0.000000
RightUpLeg -5.023643 -26.178330 -40.850637
RightLeg 8.009859 -0.000000 -0.000000
RightFoot 8.168179 -20.094997 -3.854507
RightToeBase 7.212826 -0.000000 -0.000000
793
root 3.227110 13.333200 -10.571504 14.245165 19.519629 -20.563016
Spine 9.201849 4.690490 -35.606940
Head -12.526995 -13.373940 -23.482308
LeftShoulder 0.383682 7.352216 18.149106
LeftArm 23.087538 -1.379759 -54.206994
LeftForeArm 30.006400 -0.000000 14.576648
LeftHand -33.421983 0.000000 111.105879
LeftHandThumb1 -26.253704 0.000000 33.147579
RightShoulder -19.162752 31.972386 -59.841209
RightArm 72.012365 36.417191 47.206236
RightForeArm 26.442677 -0.000000 23.320595
RightHand 3.098242 -0.000000 -5.551341
RightHandThumb1 -24.326973 -0.000000 -32.862282
LeftUpLeg -123.723123 42.001420 9.473160
LeftLeg 125.409373 -0.000000 -0.000000
LeftFoot -26.676328 -17.208679 -10.068070
LeftToeBase 3.925572 -0.000000 -0.000000
RightUpLeg -4.963860 -26.124043 -40.823725
RightLeg 8.103320 -0.000000 -0.000000
RightFoot 8.080916 -20.277256 -3.930188
RightToeBase 7.264561 -0.000000 -0.000000
794
root 3.220086 13.346154 -10.568219 14.330928 19.679198 -20.503267
Spine 9.243188 4.729048 -35.669609
Head -12.393879 -13.474432 -23.356466
LeftShoulder 0.442311 7.265209 18.169767
LeftArm 23.166409 -1.245555 -54.087122
LeftForeArm 30.009031 -0.000000 14.594092
LeftHand -33.510625 -0.000000 110.987877
LeftHandThumb1 -26.253704 0.000000 33.147579
RightShoulder -19.145537 31.933065 -59.726771
RightArm 71.999980 36.386566 47.082349
RightForeArm 26.430568 -0.000000 23.361927
RightHand 3.088242 -0.000000 -5.492985
RightHandThumb1 -24.326973 -0.000000 -32.862282
LeftUpLeg -123.894239 41.912139 9.235452
LeftLeg 125.332330 -0.000000 -0.000000
LeftFoot -26.613762 -17.323902 -10.023022
LeftToeBase 4.029206 -0.000000 -0.000000
RightUpLeg -4.924186 -26.052332 -40.853610
RightLeg 8.194030 -0.000000 -0.000000
RightFoot 8.023889 -20.453990 -3.932028
RightToeBase 7.267798 -0.000000 -0.000000
795
root 3.207915 13.359975 -10.564275 14.387082 19.876441 -20.507123
Spine 9.315728 4.758727 -35.631004
Head -12.283824 -13.599372 -23.293167
LeftShoulder 0.518747 7.138096 18.147118
LeftArm 23.216221 -1.129191 -53.957314
LeftForeArm 30.024764 0.000000 14.597532
LeftHand -33.510689 -0.000000 110.933533
LeftHandThumb1 -26.253704 0.000000 33.147579
RightShoulder -19.112115 31.903432 -59.660383
RightArm 71.951325 36.373017 46.953766
RightForeArm 26.448064 -0.000000 23.404134
RightHand 3.164905 -0.000000 -5.647906
RightHandThumb1 -24.326973 -0.000000 -32.862282
LeftUpLeg -124.082723 41.813406 9.040607
LeftLeg 125.227668 -0.000000 -0.000000
LeftFoot -26.562236 -17.476639 -10.078661
LeftToeBase 4.310106 -0.000000 -0.000000
RightUpLeg -4.864784 -25.959820 -40.816240
RightLeg 8.296597 -0.000000 -0.000000
RightFoot 7.949274 -20.663657 -3.956272
RightToeBase 7.340686 -0.000000 -0.000000
796
root 3.196556 13.375361 -10.561581 14.467832 20.062013 -20.486938
Spine 9.359041 4.797625 -35.630329
Head -12.137246 -13.749590 -23.226444
LeftShoulder 0.612917 7.052723 18.148373
LeftArm 23.299714 -1.026268 -53.818632
LeftForeArm 29.964499 -0.000000 14.600475
LeftHand -33.427272 -0.000000 110.824349
LeftHandThumb1 -26.253704 0.000000 33.147579
RightShoulder -19.058682 31.773421 -59.562436
RightArm 71.970604 36.429954 46.871362
RightForeArm 26.402200 0.000000 23.425480
RightHand 3.190353 -0.000000 -5.597784
RightHandThumb1 -24.326973 -0.000000 -32.862282
LeftUpLeg -124.286634 41.720748 8.806317
LeftLeg 125.128975 -0.000000 -0.000000
LeftFoot -26.488858 -17.562138 -9.952502
LeftToeBase 4.310887 -0.000000 -0.000000
RightUpLeg -4.830656 -25.804606 -40.796736
RightLeg 8.413454 -0.000000 -0.000000
RightFoot 7.890156 -20.938863 -3.919220
RightToeBase 7.289287 -0.000000 -0.000000
797
root 3.186056 13.390440 -10.559193 14.552880 20.273988 -20.467688
Spine 9.414335 4.821161 -35.612607
Head -11.991879 -13.919621 -23.179980
LeftShoulder 0.708393 6.929880 18.134627
LeftArm 23.364727 -0.835839 -53.651990
LeftForeArm 29.916995 -0.000000 14.589304
LeftHand -33.477949 -0.000000 110.749815
LeftHandThumb1 -26.253704 0.000000 33.147579
RightShoulder -19.003016 31.689246 -59.480724
RightArm 71.977428 36.462613 46.833990
RightForeArm 26.387900 -0.000000 23.465645
RightHand 3.233445 -0.000000 -5.654335
RightHandThumb1 -24.326973 -0.000000 -32.862282
LeftUpLeg -124.504636 41.605595 8.566197
LeftLeg 125.023726 -0.000000 -0.000000
LeftFoot -26.412847 -17.740106 -9.980616
LeftToeBase 4.480552 -0.000000 -0.000000
RightUpLeg -4.770325 -25.724753 -40.775697
RightLeg 8.506652 -0.000000 -0.000000
RightFoot 7.785484 -21.184696 -3.874887
RightToeBase 7.387816 -0.000000 -0.000000
798
root 3.176071 13.406775 -10.556565 14.629636 20.487849 -20.443056
Spine 9.493191 4.844341 -35.603276
Head -11.878278 -14.082328 -23.120223
LeftShoulder 0.779340 6.840993 18.110359
LeftArm 23.489957 -0.645866 -53.461388
LeftForeArm 29.821632 -0.000000 14.548344
LeftHand -33.596611 -0.000000 110.709108
LeftHandThumb1 -26.253704 0.000000 33.147579
RightShoulder -18.932082 31.520350 -59.353547
RightArm 72.029179 36.565444 46.780575
RightForeArm 26.343182 -0.000000 23.523499
RightHand 3.204139 -0.000000 -5.510699
RightHandThumb1 -24.326973 -0.000000 -32.862282
LeftUpLeg -124.707021 41.480439 8.316157
LeftLeg 124.915354 -0.000000 -0.000000
LeftFoot -26.358231 -17.815023 -9.821148
LeftToeBase 4.444844 -0.000000 -0.000000
RightUpLeg -4.701560 -25.653933 -40.755044
RightLeg 8.595793 -0.000000 -0.000000
RightFoot 7.746138 -21.396774 -3.941802
RightToeBase 7.388566 -0.000000 -0.000000
